<svg width="20" height="21" viewBox="0 0 20 21" fill="none" xmlns="http://www.w3.org/2000/svg">
<g opacity="0.8">
<path d="M14.8425 7.46187L11.5716 10.5005L14.8429 13.5381L18.8599 11.4189C19.4078 11.1293 19.6142 10.7861 19.6142 10.4998C19.6142 10.2135 19.4079 9.87049 18.8601 9.58135L14.8425 7.46187Z" fill="white"/>
<path d="M10.7503 10.4998L0.486464 0.969323C0.395522 1.14607 0.338623 1.37834 0.338623 1.67015V19.3298C0.338623 19.6222 0.395527 19.8543 0.486497 20.0309L10.7503 10.4998Z" fill="white"/>
<path d="M2.0874 0.733388L14.2404 7.14507L11.1637 10.0019L0.977389 0.542673C1.25534 0.456217 1.63031 0.4922 2.0874 0.733388Z" fill="white"/>
<path d="M0.976639 20.4572C1.25458 20.5438 1.62975 20.5079 2.08738 20.2669L14.2401 13.8546L11.1645 10.9974L10.0285 12.0523L0.976639 20.4572Z" fill="white"/>
</g>
</svg>
