<svg width="20" height="21" viewBox="0 0 20 21" fill="none" xmlns="http://www.w3.org/2000/svg">
<g opacity="0.8">
<path d="M16.4381 11.1359C16.4616 9.59202 17.4439 8.13115 19.002 7.32249C18.019 6.1374 16.3726 5.38602 14.6596 5.34078C12.8326 5.17889 11.0614 6.26366 10.1304 6.26366C9.18138 6.26366 7.74794 5.35685 6.20437 5.38366C4.19238 5.43853 2.31671 6.40417 1.33783 7.88906C-0.766357 10.9644 0.803179 15.4841 2.81882 17.97C3.82728 19.1873 5.00589 20.547 6.54808 20.4988C8.0572 20.4459 8.62082 19.6864 10.4425 19.6864C12.2472 19.6864 12.776 20.4988 14.3495 20.4681C15.9688 20.4459 16.9891 19.2454 17.9622 18.0166C18.6868 17.1493 19.2443 16.1907 19.6142 15.1763C17.7112 14.4969 16.4403 12.8802 16.4381 11.1359Z" fill="white"/>
<path d="M13.466 3.70595C14.349 2.81119 14.784 1.66113 14.6786 0.5C13.3297 0.6196 12.0837 1.16383 11.1888 2.02426C10.3137 2.86494 9.85834 3.99477 9.94443 5.11152C11.2939 5.12325 12.6204 4.59376 13.466 3.70595Z" fill="white"/>
</g>
</svg>
