<svg width="181" height="20" viewBox="0 0 181 20" fill="none" xmlns="http://www.w3.org/2000/svg">
<path opacity="0.8" fill-rule="evenodd" clip-rule="evenodd" d="M58.126 10.0762V19.7388C58.126 19.8694 58.2587 20 58.4446 20H62.826C62.9854 20 63.1447 19.8912 63.1447 19.7388V9.90207H66.3046C66.4639 9.90207 66.5967 9.79325 66.6233 9.66268L66.8888 6.7247C66.9154 6.57236 66.756 6.44178 66.5702 6.44178H63.1181V4.35256C63.1181 3.85201 63.5961 3.46028 64.2068 3.46028H66.6498C66.8091 3.46028 66.9685 3.35147 66.9685 3.19913V0.261153C66.9685 0.130576 66.8357 0 66.6498 0H62.5074C60.091 0 58.126 1.61045 58.126 3.59086V6.44178H55.9485C55.7892 6.44178 55.6299 6.5506 55.6299 6.70294V9.66268C55.6299 9.79325 55.7627 9.92383 55.9485 9.92383H58.126V10.0762Z" fill="white"/>
<g opacity="0.8">
<path d="M168.997 13.3292C168.25 13.3292 167.52 13.1339 166.899 12.768C166.278 12.4021 165.794 11.882 165.508 11.2735C165.223 10.665 165.148 9.99549 165.294 9.34953C165.439 8.70357 165.799 8.11022 166.327 7.64451C166.855 7.17881 167.528 6.86165 168.26 6.73316C168.993 6.60468 169.752 6.67062 170.442 6.92266C171.132 7.1747 171.721 7.60152 172.136 8.14913C172.551 8.69675 172.773 9.34057 172.773 9.99918C172.773 10.4365 172.675 10.8695 172.485 11.2735C172.295 11.6775 172.017 12.0446 171.667 12.3538C171.316 12.6631 170.9 12.9084 170.442 13.0757C169.984 13.243 169.493 13.3292 168.997 13.3292Z" fill="white"/>
<path fill-rule="evenodd" clip-rule="evenodd" d="M179.765 3.45C180.088 4.2294 180.264 5.0503 180.286 5.88C180.354 6.94 180.354 7.28 180.354 10C180.354 11.6746 180.329 12.4471 180.309 13.0409C180.296 13.4116 180.286 13.7126 180.286 14.12C180.264 14.9497 180.088 15.7706 179.765 16.55C179.479 17.2182 179.03 17.8226 178.449 18.32C177.888 18.8326 177.202 19.2258 176.442 19.47C175.561 19.7638 174.629 19.9228 173.687 19.94C172.485 20 172.1 20 169.016 20C165.932 20 165.546 20 164.344 19.94C163.402 19.9228 162.47 19.7638 161.589 19.47C160.831 19.2234 160.145 18.8304 159.582 18.32C159.001 17.8248 158.555 17.2196 158.278 16.55C157.945 15.7727 157.765 14.9509 157.745 14.12C157.677 13.06 157.677 12.72 157.677 10C157.677 7.28 157.677 6.94 157.745 5.88C157.765 5.04915 157.945 4.22734 158.278 3.45C158.555 2.78044 159.001 2.17518 159.582 1.68C160.145 1.16956 160.831 0.776648 161.589 0.53C162.47 0.236161 163.402 0.0772105 164.344 0.0600004C165.546 0 165.932 0 169.016 0C172.1 0 172.485 0 173.687 0.0600004C174.629 0.0772105 175.561 0.236161 176.442 0.53C177.202 0.774176 177.888 1.16743 178.449 1.68C179.028 2.17928 179.476 2.78313 179.765 3.45ZM175.054 3.45898C174.784 3.45898 174.521 3.52936 174.298 3.66122C174.074 3.79308 173.899 3.98049 173.796 4.19976C173.693 4.41904 173.667 4.66032 173.719 4.89309C173.772 5.12587 173.901 5.33969 174.091 5.50751C174.282 5.67534 174.524 5.78962 174.788 5.83593C175.052 5.88223 175.326 5.85846 175.574 5.76764C175.823 5.67681 176.035 5.52301 176.185 5.32567C176.334 5.12833 176.414 4.89632 176.414 4.65898C176.414 4.34072 176.271 4.0355 176.016 3.81046C175.76 3.58541 175.414 3.45898 175.054 3.45898ZM168.997 4.86918C167.847 4.87116 166.723 5.17371 165.768 5.7386C164.813 6.30349 164.069 7.10538 163.631 8.04293C163.192 8.98049 163.079 10.0116 163.305 11.0061C163.53 12.0006 164.085 12.9137 164.899 13.6302C165.713 14.3466 166.749 14.8342 167.877 15.0313C169.005 15.2285 170.174 15.1263 171.237 14.7377C172.299 14.3491 173.207 13.6916 173.845 12.8482C174.484 12.0048 174.825 11.0134 174.825 9.99918C174.826 9.32428 174.676 8.65579 174.384 8.03214C174.091 7.40849 173.662 6.84199 173.12 6.36523C172.579 5.88847 171.936 5.51086 171.228 5.25411C170.52 4.99736 169.762 4.86654 168.997 4.86918Z" fill="white"/>
</g>
<path opacity="0.8" d="M123.661 3.89517C122.808 4.21825 121.906 4.43298 120.983 4.53275C121.956 4.0313 122.684 3.23727 123.028 2.30111C122.117 2.77031 121.12 3.10076 120.08 3.27818C119.443 2.6868 118.615 2.27563 117.705 2.09812C116.795 1.92061 115.844 1.98498 114.977 2.28285C114.109 2.58072 113.365 3.09832 112.841 3.76835C112.317 4.43838 112.037 5.22984 112.038 6.03983C112.034 6.34892 112.07 6.65739 112.146 6.95952C110.296 6.88078 108.487 6.464 106.835 5.7364C105.184 5.00881 103.728 3.98679 102.563 2.73716C101.965 3.62518 101.779 4.67797 102.045 5.68064C102.31 6.68331 103.006 7.56026 103.991 8.13252C103.255 8.11526 102.535 7.94472 101.891 7.63529V7.67927C101.892 8.61148 102.263 9.51487 102.942 10.2374C103.62 10.9599 104.565 11.4574 105.616 11.6461C105.218 11.7371 104.808 11.7819 104.397 11.7791C104.102 11.7836 103.807 11.7605 103.517 11.7101C103.817 12.5113 104.396 13.2119 105.174 13.7155C105.952 14.2191 106.891 14.5009 107.861 14.5221C106.215 15.6396 104.186 16.2458 102.097 16.2439C101.725 16.2461 101.353 16.2275 100.984 16.1884C103.11 17.3778 105.587 18.007 108.116 17.9999C116.671 17.9999 121.348 11.8466 121.348 6.51287C121.348 6.33433 121.341 6.16219 121.331 5.99105C122.248 5.42123 123.038 4.71098 123.661 3.89517Z" fill="white"/>
<path opacity="0.8" d="M2.62543 5.26394C2.65216 5.01655 2.55131 4.77206 2.35385 4.60554L0.342354 2.33865V2H6.58812L11.4157 11.9047L15.66 2H21.6141V2.33865L19.8943 3.88123C19.746 3.98695 19.6724 4.16074 19.7031 4.33274V15.6673C19.6724 15.8393 19.746 16.013 19.8943 16.1188L21.5738 17.6614V18H13.1255V17.6614L14.8655 16.0811C15.0365 15.9212 15.0365 15.8742 15.0365 15.6296V6.46794L10.1988 17.9624H9.54501L3.91278 6.46794V14.1717C3.86586 14.4956 3.98084 14.8216 4.22455 15.0559L6.48754 17.6238V17.9624H0.0708008V17.6238L2.33372 15.0559C2.57575 14.8212 2.684 14.493 2.62543 14.1717V5.26394Z" fill="white"/>
</svg>
