<svg width="20" height="20" viewBox="0 0 20 20" fill="none" xmlns="http://www.w3.org/2000/svg">
<path d="M7.42504 17.225C7.26671 17.225 7.10837 17.1667 6.98337 17.0417C6.74171 16.8 6.74171 16.4 6.98337 16.1583L12.4167 10.725C12.8167 10.325 12.8167 9.67499 12.4167 9.27499L6.98337 3.84165C6.74171 3.59999 6.74171 3.19999 6.98337 2.95832C7.22504 2.71665 7.62504 2.71665 7.86671 2.95832L13.3 8.39165C13.725 8.81665 13.9667 9.39165 13.9667 9.99999C13.9667 10.6083 13.7334 11.1833 13.3 11.6083L7.86671 17.0417C7.74171 17.1583 7.58337 17.225 7.42504 17.225Z" fill="white"/>
</svg>
