<svg width="43" height="41" viewBox="0 0 43 41" fill="none" xmlns="http://www.w3.org/2000/svg">
<path d="M29.3561 26.858C31.7768 23.5544 32.861 19.4585 32.3918 15.3897C31.9226 11.321 29.9346 7.57939 26.8256 4.9136C23.7166 2.2478 19.7159 0.854362 15.6237 1.01206C11.5316 1.16976 7.64992 2.86697 4.75524 5.76413C1.86055 8.66129 0.166365 12.5448 0.0116159 16.6376C-0.143133 20.7304 1.25297 24.7307 3.92062 27.8382C6.58826 30.9458 10.3307 32.9313 14.3993 33.3977C18.4678 33.864 22.5623 32.7767 25.8638 30.3534H25.8613C25.9363 30.4534 26.0163 30.5484 26.1063 30.6409L35.7309 40.2669C36.1997 40.7361 36.8355 40.9998 37.4987 41C38.1618 41.0002 38.7979 40.737 39.267 40.2682C39.7361 39.7994 39.9998 39.1634 40 38.5001C40.0002 37.8369 39.737 37.2007 39.2683 36.7316L29.6436 27.1056C29.5543 27.0151 29.4581 26.934 29.3561 26.858ZM30.0011 17.247C30.0011 19.0529 29.6455 20.8411 28.9545 22.5095C28.2635 24.1779 27.2507 25.6938 25.974 26.9708C24.6972 28.2477 23.1815 29.2606 21.5133 29.9517C19.8452 30.6428 18.0572 30.9985 16.2516 30.9985C14.446 30.9985 12.6581 30.6428 10.9899 29.9517C9.32177 29.2606 7.80604 28.2477 6.52928 26.9708C5.25252 25.6938 4.23974 24.1779 3.54877 22.5095C2.85779 20.8411 2.50215 19.0529 2.50215 17.247C2.50215 13.5999 3.95075 10.1022 6.52928 7.52332C9.10781 4.94443 12.605 3.49563 16.2516 3.49563C19.8982 3.49563 23.3955 4.94443 25.974 7.52332C28.5525 10.1022 30.0011 13.5999 30.0011 17.247Z" fill="white"/>
</svg>
